<?xml version="1.0" encoding="utf-8"?>
<!-- Generator: Adobe Illustrator 25.2.0, SVG Export Plug-In . SVG Version: 6.00 Build 0)  -->
<svg version="1.1" id="Ebene_1" xmlns="http://www.w3.org/2000/svg" xmlns:xlink="http://www.w3.org/1999/xlink" x="0px" y="0px"
	 viewBox="0 0 44 44" style="enable-background:new 0 0 44 44;" xml:space="preserve">
<style type="text/css">
	.st0{fill:url(#SVGID_1_);}
	.st1{fill:#FFFFFF;}
	.st2{fill-rule:evenodd;clip-rule:evenodd;fill:#FFFFFF;}
	.st3{fill:#C60C0F;}
	.st4{fill:#EA5B0C;}
	.st5{fill:#B62584;}
</style>
<radialGradient id="SVGID_1_" cx="2747.7778" cy="-2532.5552" r="205.4639" gradientTransform="matrix(0.1584 0 0 -0.1584 -435.1123 -464.8949)" gradientUnits="userSpaceOnUse">
	<stop  offset="0" style="stop-color:#466488"/>
	<stop  offset="0.9904" style="stop-color:#003C65"/>
</radialGradient>
<polygon class="st0" points="0,-64 44,-64 44,-20 0,-20 "/>
<g>
	<polygon class="st1" points="6.1,-26.9 8.2,-26.9 8.2,-36.1 6.1,-36.1 	"/>
	<polygon class="st1" points="9.9,-26.9 16.4,-26.9 16.4,-28.6 11.9,-28.6 11.9,-36.1 9.9,-36.1 	"/>
	<polygon class="st1" points="18,-26.9 20,-26.9 20,-36.1 18,-36.1 	"/>
	<path class="st2" d="M21.1-26.9h2l0.7-2h3.4l0.7,2h2.1l-3.4-9.2h-2.1L21.1-26.9L21.1-26.9z M25.6-33.8L25.6-33.8l1.2,3.4h-2.4
		L25.6-33.8L25.6-33.8z"/>
	<path class="st1" d="M31.1-30c0,2.3,1.9,3.3,3.9,3.3c2.5,0,3.8-1.3,3.8-2.9c0-2.1-2.1-2.5-2.7-2.7c-2.3-0.6-2.7-0.7-2.7-1.4
		c0-0.8,0.7-1,1.4-1c1,0,1.7,0.3,1.8,1.4h1.9c0-2.1-1.8-2.9-3.7-2.9c-1.7,0-3.4,0.9-3.4,2.8c0,1.7,1.4,2.2,2.7,2.6
		c1.3,0.4,2.7,0.5,2.7,1.5c0,0.9-1.1,1.1-1.8,1.1c-1.1,0-2-0.5-2-1.7L31.1-30L31.1-30z"/>
</g>
<rect x="4.7" y="12.4" class="st3" width="30.9" height="4.9"/>
<rect x="4.7" y="19" class="st4" width="11" height="4.9"/>
<rect x="4.7" y="26.4" width="7.4" height="4.9"/>
<rect x="14.7" y="26.4" width="12.3" height="4.9"/>
<rect x="17.3" y="19.1" class="st5" width="22" height="4.9"/>
</svg>
